<svg width="454" height="40" viewBox="0 0 454 40" fill="none" xmlns="http://www.w3.org/2000/svg">
<rect width="454" height="40" fill="#00966D"/>
<path d="M130.86 25V13.64H134.796C136.012 13.64 137.025 13.896 137.836 14.408C138.657 14.9093 139.271 15.592 139.676 16.456C140.081 17.3093 140.284 18.2587 140.284 19.304C140.284 20.456 140.06 21.4587 139.612 22.312C139.164 23.1653 138.529 23.8267 137.708 24.296C136.887 24.7653 135.916 25 134.796 25H130.86ZM138.828 19.304C138.828 18.4507 138.668 17.6933 138.348 17.032C138.039 16.3707 137.585 15.8533 136.988 15.48C136.391 15.1067 135.66 14.92 134.796 14.92H132.3V23.72H134.796C135.671 23.72 136.407 23.528 137.004 23.144C137.601 22.7493 138.055 22.2213 138.364 21.56C138.673 20.888 138.828 20.136 138.828 19.304ZM145.785 25.16C145.156 25.16 144.58 25.048 144.057 24.824C143.545 24.5893 143.097 24.2747 142.713 23.88C142.34 23.4747 142.046 23.0107 141.833 22.488C141.63 21.9653 141.529 21.4107 141.529 20.824C141.529 20.0347 141.71 19.3147 142.073 18.664C142.436 18.0133 142.937 17.4907 143.577 17.096C144.228 16.7013 144.969 16.504 145.801 16.504C146.644 16.504 147.374 16.7067 147.993 17.112C148.622 17.5067 149.108 18.0293 149.449 18.68C149.801 19.32 149.977 20.0133 149.977 20.76C149.977 20.8667 149.972 20.9733 149.961 21.08C149.961 21.176 149.956 21.2507 149.945 21.304H143.017C143.06 21.848 143.209 22.3333 143.465 22.76C143.732 23.176 144.073 23.5067 144.489 23.752C144.905 23.9867 145.353 24.104 145.833 24.104C146.345 24.104 146.825 23.976 147.273 23.72C147.732 23.464 148.046 23.128 148.217 22.712L149.433 23.048C149.252 23.4533 148.98 23.816 148.617 24.136C148.265 24.456 147.844 24.7067 147.353 24.888C146.873 25.0693 146.35 25.16 145.785 25.16ZM142.969 20.328H148.665C148.622 19.784 148.468 19.304 148.201 18.888C147.934 18.472 147.593 18.1467 147.177 17.912C146.761 17.6773 146.302 17.56 145.801 17.56C145.31 17.56 144.857 17.6773 144.441 17.912C144.025 18.1467 143.684 18.472 143.417 18.888C143.161 19.304 143.012 19.784 142.969 20.328ZM151.574 13.32H152.982V22.84C152.982 23.2987 153.046 23.5813 153.174 23.688C153.302 23.7947 153.457 23.848 153.638 23.848C153.862 23.848 154.076 23.8267 154.278 23.784C154.481 23.7307 154.652 23.6773 154.79 23.624L155.014 24.776C154.78 24.872 154.502 24.952 154.182 25.016C153.862 25.08 153.58 25.112 153.334 25.112C152.79 25.112 152.358 24.9573 152.038 24.648C151.729 24.3387 151.574 23.9067 151.574 23.352V13.32ZM159.816 25.16C159.187 25.16 158.611 25.048 158.088 24.824C157.576 24.5893 157.128 24.2747 156.744 23.88C156.371 23.4747 156.078 23.0107 155.864 22.488C155.662 21.9653 155.56 21.4107 155.56 20.824C155.56 20.0347 155.742 19.3147 156.104 18.664C156.467 18.0133 156.968 17.4907 157.608 17.096C158.259 16.7013 159 16.504 159.832 16.504C160.675 16.504 161.406 16.7067 162.024 17.112C162.654 17.5067 163.139 18.0293 163.48 18.68C163.832 19.32 164.008 20.0133 164.008 20.76C164.008 20.8667 164.003 20.9733 163.992 21.08C163.992 21.176 163.987 21.2507 163.976 21.304H157.048C157.091 21.848 157.24 22.3333 157.496 22.76C157.763 23.176 158.104 23.5067 158.52 23.752C158.936 23.9867 159.384 24.104 159.864 24.104C160.376 24.104 160.856 23.976 161.304 23.72C161.763 23.464 162.078 23.128 162.248 22.712L163.464 23.048C163.283 23.4533 163.011 23.816 162.648 24.136C162.296 24.456 161.875 24.7067 161.384 24.888C160.904 25.0693 160.382 25.16 159.816 25.16ZM157 20.328H162.696C162.654 19.784 162.499 19.304 162.232 18.888C161.966 18.472 161.624 18.1467 161.208 17.912C160.792 17.6773 160.334 17.56 159.832 17.56C159.342 17.56 158.888 17.6773 158.472 17.912C158.056 18.1467 157.715 18.472 157.448 18.888C157.192 19.304 157.043 19.784 157 20.328ZM169.815 24.584C169.698 24.6373 169.538 24.7067 169.335 24.792C169.133 24.8773 168.898 24.952 168.631 25.016C168.365 25.08 168.082 25.112 167.783 25.112C167.442 25.112 167.127 25.0533 166.839 24.936C166.551 24.808 166.322 24.616 166.151 24.36C165.981 24.0933 165.895 23.7627 165.895 23.368V17.752H164.759V16.648H165.895V13.864H167.303V16.648H169.175V17.752H167.303V22.936C167.325 23.2347 167.426 23.4587 167.607 23.608C167.789 23.7467 168.002 23.816 168.247 23.816C168.525 23.816 168.781 23.768 169.015 23.672C169.25 23.576 169.405 23.5067 169.479 23.464L169.815 24.584ZM174.707 25.16C174.078 25.16 173.502 25.048 172.979 24.824C172.467 24.5893 172.019 24.2747 171.635 23.88C171.262 23.4747 170.968 23.0107 170.755 22.488C170.552 21.9653 170.451 21.4107 170.451 20.824C170.451 20.0347 170.632 19.3147 170.995 18.664C171.358 18.0133 171.859 17.4907 172.499 17.096C173.15 16.7013 173.891 16.504 174.723 16.504C175.566 16.504 176.296 16.7067 176.915 17.112C177.544 17.5067 178.03 18.0293 178.371 18.68C178.723 19.32 178.899 20.0133 178.899 20.76C178.899 20.8667 178.894 20.9733 178.883 21.08C178.883 21.176 178.878 21.2507 178.867 21.304H171.939C171.982 21.848 172.131 22.3333 172.387 22.76C172.654 23.176 172.995 23.5067 173.411 23.752C173.827 23.9867 174.275 24.104 174.755 24.104C175.267 24.104 175.747 23.976 176.195 23.72C176.654 23.464 176.968 23.128 177.139 22.712L178.355 23.048C178.174 23.4533 177.902 23.816 177.539 24.136C177.187 24.456 176.766 24.7067 176.275 24.888C175.795 25.0693 175.272 25.16 174.707 25.16ZM171.891 20.328H177.587C177.544 19.784 177.39 19.304 177.123 18.888C176.856 18.472 176.515 18.1467 176.099 17.912C175.683 17.6773 175.224 17.56 174.723 17.56C174.232 17.56 173.779 17.6773 173.363 17.912C172.947 18.1467 172.606 18.472 172.339 18.888C172.083 19.304 171.934 19.784 171.891 20.328ZM179.92 20.84C179.92 20.0507 180.08 19.3307 180.4 18.68C180.731 18.0187 181.179 17.4907 181.744 17.096C182.32 16.7013 182.976 16.504 183.712 16.504C184.384 16.504 184.987 16.68 185.52 17.032C186.053 17.384 186.469 17.8107 186.768 18.312V13.32H188.176V23.4C188.176 23.5707 188.208 23.6987 188.272 23.784C188.347 23.8587 188.464 23.9013 188.624 23.912V25C188.357 25.0427 188.149 25.064 188 25.064C187.723 25.064 187.477 24.968 187.264 24.776C187.061 24.584 186.96 24.3707 186.96 24.136V23.432C186.629 23.9653 186.187 24.3867 185.632 24.696C185.077 25.0053 184.501 25.16 183.904 25.16C183.328 25.16 182.795 25.048 182.304 24.824C181.824 24.5893 181.403 24.2693 181.04 23.864C180.688 23.4587 180.411 23 180.208 22.488C180.016 21.9653 179.92 21.416 179.92 20.84ZM186.768 22.072V19.672C186.64 19.3093 186.432 18.984 186.144 18.696C185.856 18.3973 185.531 18.1627 185.168 17.992C184.816 17.8107 184.464 17.72 184.112 17.72C183.696 17.72 183.317 17.8107 182.976 17.992C182.645 18.1627 182.357 18.3973 182.112 18.696C181.877 18.984 181.696 19.3147 181.568 19.688C181.44 20.0613 181.376 20.4507 181.376 20.856C181.376 21.272 181.445 21.6667 181.584 22.04C181.733 22.4133 181.936 22.744 182.192 23.032C182.459 23.32 182.763 23.544 183.104 23.704C183.456 23.864 183.835 23.944 184.24 23.944C184.496 23.944 184.757 23.896 185.024 23.8C185.301 23.704 185.563 23.5707 185.808 23.4C186.053 23.2293 186.261 23.032 186.432 22.808C186.603 22.5733 186.715 22.328 186.768 22.072ZM201.47 16.024C201.342 15.8747 201.171 15.7307 200.958 15.592C200.744 15.4533 200.504 15.3307 200.238 15.224C199.971 15.1067 199.678 15.016 199.358 14.952C199.048 14.8773 198.723 14.84 198.382 14.84C197.507 14.84 196.862 15.0053 196.446 15.336C196.03 15.6667 195.822 16.12 195.822 16.696C195.822 17.1013 195.928 17.4213 196.142 17.656C196.355 17.8907 196.68 18.0827 197.118 18.232C197.566 18.3813 198.131 18.536 198.814 18.696C199.603 18.8667 200.286 19.0747 200.862 19.32C201.438 19.5653 201.88 19.896 202.19 20.312C202.499 20.7173 202.654 21.2613 202.654 21.944C202.654 22.488 202.547 22.9627 202.334 23.368C202.131 23.7627 201.843 24.0933 201.47 24.36C201.096 24.616 200.659 24.808 200.158 24.936C199.656 25.0533 199.112 25.112 198.526 25.112C197.95 25.112 197.384 25.0533 196.83 24.936C196.286 24.808 195.768 24.6267 195.278 24.392C194.787 24.1573 194.328 23.864 193.902 23.512L194.59 22.296C194.76 22.4773 194.979 22.6587 195.246 22.84C195.523 23.0107 195.832 23.1707 196.174 23.32C196.526 23.4693 196.904 23.592 197.31 23.688C197.715 23.7733 198.131 23.816 198.558 23.816C199.368 23.816 199.998 23.672 200.446 23.384C200.894 23.0853 201.118 22.6533 201.118 22.088C201.118 21.6613 200.99 21.32 200.734 21.064C200.488 20.808 200.12 20.5947 199.63 20.424C199.139 20.2533 198.542 20.0827 197.838 19.912C197.07 19.72 196.424 19.512 195.902 19.288C195.379 19.0533 194.984 18.7493 194.718 18.376C194.462 18.0027 194.334 17.5173 194.334 16.92C194.334 16.1947 194.51 15.5813 194.862 15.08C195.214 14.5787 195.699 14.2 196.318 13.944C196.936 13.688 197.635 13.56 198.414 13.56C198.926 13.56 199.4 13.6133 199.838 13.72C200.286 13.8267 200.702 13.976 201.086 14.168C201.47 14.36 201.822 14.5893 202.142 14.856L201.47 16.024ZM204.243 21.656V16.648H205.652V21.384C205.652 22.2373 205.801 22.8773 206.1 23.304C206.398 23.7307 206.841 23.944 207.428 23.944C207.812 23.944 208.18 23.864 208.532 23.704C208.894 23.5333 209.22 23.2933 209.508 22.984C209.796 22.6747 210.02 22.3067 210.18 21.88V16.648H211.588V23.4C211.588 23.5707 211.62 23.6987 211.684 23.784C211.758 23.8587 211.876 23.9013 212.036 23.912V25C211.876 25.0213 211.748 25.032 211.652 25.032C211.566 25.0427 211.481 25.048 211.396 25.048C211.129 25.048 210.9 24.968 210.708 24.808C210.516 24.6373 210.414 24.4293 210.404 24.184L210.372 23.208C210.009 23.8267 209.518 24.3067 208.9 24.648C208.292 24.9893 207.625 25.16 206.9 25.16C206.025 25.16 205.364 24.8667 204.916 24.28C204.468 23.6827 204.243 22.808 204.243 21.656ZM217.629 25.16C217 25.16 216.424 25.048 215.901 24.824C215.389 24.5893 214.941 24.2693 214.557 23.864C214.184 23.4587 213.89 22.9947 213.677 22.472C213.474 21.9493 213.373 21.3947 213.373 20.808C213.373 20.0187 213.549 19.2987 213.901 18.648C214.253 17.9973 214.749 17.48 215.389 17.096C216.029 16.7013 216.77 16.504 217.613 16.504C218.434 16.504 219.149 16.6907 219.757 17.064C220.376 17.4267 220.834 17.9173 221.133 18.536L219.757 18.968C219.544 18.5733 219.245 18.2693 218.861 18.056C218.477 17.832 218.05 17.72 217.581 17.72C217.069 17.72 216.6 17.8533 216.173 18.12C215.757 18.3867 215.426 18.7547 215.181 19.224C214.936 19.6827 214.813 20.2107 214.813 20.808C214.813 21.3947 214.936 21.928 215.181 22.408C215.437 22.8773 215.773 23.2507 216.189 23.528C216.616 23.8053 217.085 23.944 217.597 23.944C217.928 23.944 218.242 23.8853 218.541 23.768C218.85 23.6507 219.117 23.496 219.341 23.304C219.576 23.1013 219.736 22.8827 219.821 22.648L221.197 23.064C221.026 23.4693 220.765 23.832 220.413 24.152C220.072 24.4613 219.661 24.7067 219.181 24.888C218.712 25.0693 218.194 25.16 217.629 25.16ZM226.41 25.16C225.781 25.16 225.205 25.048 224.682 24.824C224.17 24.5893 223.722 24.2693 223.338 23.864C222.965 23.4587 222.671 22.9947 222.458 22.472C222.255 21.9493 222.154 21.3947 222.154 20.808C222.154 20.0187 222.33 19.2987 222.682 18.648C223.034 17.9973 223.53 17.48 224.17 17.096C224.81 16.7013 225.551 16.504 226.394 16.504C227.215 16.504 227.93 16.6907 228.538 17.064C229.157 17.4267 229.615 17.9173 229.914 18.536L228.538 18.968C228.325 18.5733 228.026 18.2693 227.642 18.056C227.258 17.832 226.831 17.72 226.362 17.72C225.85 17.72 225.381 17.8533 224.954 18.12C224.538 18.3867 224.207 18.7547 223.962 19.224C223.717 19.6827 223.594 20.2107 223.594 20.808C223.594 21.3947 223.717 21.928 223.962 22.408C224.218 22.8773 224.554 23.2507 224.97 23.528C225.397 23.8053 225.866 23.944 226.378 23.944C226.709 23.944 227.023 23.8853 227.322 23.768C227.631 23.6507 227.898 23.496 228.122 23.304C228.357 23.1013 228.517 22.8827 228.602 22.648L229.978 23.064C229.807 23.4693 229.546 23.832 229.194 24.152C228.853 24.4613 228.442 24.7067 227.962 24.888C227.493 25.0693 226.975 25.16 226.41 25.16ZM235.191 25.16C234.562 25.16 233.986 25.048 233.463 24.824C232.951 24.5893 232.503 24.2747 232.119 23.88C231.746 23.4747 231.453 23.0107 231.239 22.488C231.037 21.9653 230.935 21.4107 230.935 20.824C230.935 20.0347 231.117 19.3147 231.479 18.664C231.842 18.0133 232.343 17.4907 232.983 17.096C233.634 16.7013 234.375 16.504 235.207 16.504C236.05 16.504 236.781 16.7067 237.399 17.112C238.029 17.5067 238.514 18.0293 238.855 18.68C239.207 19.32 239.383 20.0133 239.383 20.76C239.383 20.8667 239.378 20.9733 239.367 21.08C239.367 21.176 239.362 21.2507 239.351 21.304H232.423C232.466 21.848 232.615 22.3333 232.871 22.76C233.138 23.176 233.479 23.5067 233.895 23.752C234.311 23.9867 234.759 24.104 235.239 24.104C235.751 24.104 236.231 23.976 236.679 23.72C237.138 23.464 237.453 23.128 237.623 22.712L238.839 23.048C238.658 23.4533 238.386 23.816 238.023 24.136C237.671 24.456 237.25 24.7067 236.759 24.888C236.279 25.0693 235.757 25.16 235.191 25.16ZM232.375 20.328H238.071C238.029 19.784 237.874 19.304 237.607 18.888C237.341 18.472 236.999 18.1467 236.583 17.912C236.167 17.6773 235.709 17.56 235.207 17.56C234.717 17.56 234.263 17.6773 233.847 17.912C233.431 18.1467 233.09 18.472 232.823 18.888C232.567 19.304 232.418 19.784 232.375 20.328ZM243.812 25.16C243.119 25.16 242.469 25.048 241.861 24.824C241.253 24.5893 240.73 24.2427 240.293 23.784L240.837 22.792C241.317 23.24 241.797 23.56 242.277 23.752C242.757 23.944 243.247 24.04 243.749 24.04C244.325 24.04 244.794 23.9333 245.157 23.72C245.519 23.496 245.701 23.1707 245.701 22.744C245.701 22.4347 245.605 22.2053 245.413 22.056C245.231 21.9067 244.97 21.784 244.629 21.688C244.287 21.5813 243.882 21.464 243.413 21.336C242.837 21.1653 242.351 20.984 241.957 20.792C241.562 20.6 241.263 20.36 241.061 20.072C240.858 19.784 240.757 19.4213 240.757 18.984C240.757 18.4507 240.895 18.0027 241.173 17.64C241.45 17.2667 241.829 16.984 242.309 16.792C242.799 16.6 243.354 16.504 243.973 16.504C244.591 16.504 245.151 16.6 245.653 16.792C246.154 16.984 246.586 17.2667 246.949 17.64L246.309 18.616C245.978 18.2747 245.615 18.024 245.221 17.864C244.826 17.6933 244.383 17.608 243.893 17.608C243.605 17.608 243.322 17.6453 243.045 17.72C242.767 17.784 242.538 17.9067 242.357 18.088C242.175 18.2587 242.085 18.504 242.085 18.824C242.085 19.0907 242.154 19.304 242.293 19.464C242.442 19.6133 242.655 19.7413 242.933 19.848C243.221 19.9547 243.567 20.072 243.973 20.2C244.602 20.3813 245.146 20.5627 245.605 20.744C246.074 20.9253 246.437 21.16 246.693 21.448C246.949 21.736 247.077 22.136 247.077 22.648C247.077 23.4373 246.778 24.056 246.181 24.504C245.583 24.9413 244.794 25.16 243.812 25.16ZM251.625 25.16C250.932 25.16 250.281 25.048 249.673 24.824C249.065 24.5893 248.542 24.2427 248.105 23.784L248.649 22.792C249.129 23.24 249.609 23.56 250.089 23.752C250.569 23.944 251.06 24.04 251.561 24.04C252.137 24.04 252.606 23.9333 252.969 23.72C253.332 23.496 253.513 23.1707 253.513 22.744C253.513 22.4347 253.417 22.2053 253.225 22.056C253.044 21.9067 252.782 21.784 252.441 21.688C252.1 21.5813 251.694 21.464 251.225 21.336C250.649 21.1653 250.164 20.984 249.769 20.792C249.374 20.6 249.076 20.36 248.873 20.072C248.67 19.784 248.569 19.4213 248.569 18.984C248.569 18.4507 248.708 18.0027 248.985 17.64C249.262 17.2667 249.641 16.984 250.121 16.792C250.612 16.6 251.166 16.504 251.785 16.504C252.404 16.504 252.964 16.6 253.465 16.792C253.966 16.984 254.398 17.2667 254.761 17.64L254.121 18.616C253.79 18.2747 253.428 18.024 253.033 17.864C252.638 17.6933 252.196 17.608 251.705 17.608C251.417 17.608 251.134 17.6453 250.857 17.72C250.58 17.784 250.35 17.9067 250.169 18.088C249.988 18.2587 249.897 18.504 249.897 18.824C249.897 19.0907 249.966 19.304 250.105 19.464C250.254 19.6133 250.468 19.7413 250.745 19.848C251.033 19.9547 251.38 20.072 251.785 20.2C252.414 20.3813 252.958 20.5627 253.417 20.744C253.886 20.9253 254.249 21.16 254.505 21.448C254.761 21.736 254.889 22.136 254.889 22.648C254.889 23.4373 254.59 24.056 253.993 24.504C253.396 24.9413 252.606 25.16 251.625 25.16ZM257.022 25V17.752H255.886V16.648H257.022V16.472C257.022 15.7893 257.123 15.2027 257.326 14.712C257.539 14.2107 257.838 13.8267 258.222 13.56C258.606 13.2933 259.059 13.16 259.582 13.16C259.912 13.16 260.238 13.208 260.558 13.304C260.878 13.3893 261.166 13.512 261.422 13.672L261.07 14.712C260.92 14.6053 260.734 14.52 260.51 14.456C260.296 14.392 260.083 14.36 259.87 14.36C259.411 14.36 259.054 14.5413 258.798 14.904C258.552 15.256 258.43 15.7627 258.43 16.424V16.648H260.654V17.752H258.43V25H257.022ZM261.978 21.656V16.648H263.386V21.384C263.386 22.2373 263.535 22.8773 263.834 23.304C264.133 23.7307 264.575 23.944 265.162 23.944C265.546 23.944 265.914 23.864 266.266 23.704C266.629 23.5333 266.954 23.2933 267.242 22.984C267.53 22.6747 267.754 22.3067 267.914 21.88V16.648H269.322V23.4C269.322 23.5707 269.354 23.6987 269.418 23.784C269.493 23.8587 269.61 23.9013 269.77 23.912V25C269.61 25.0213 269.482 25.032 269.386 25.032C269.301 25.0427 269.215 25.048 269.13 25.048C268.863 25.048 268.634 24.968 268.442 24.808C268.25 24.6373 268.149 24.4293 268.138 24.184L268.106 23.208C267.743 23.8267 267.253 24.3067 266.634 24.648C266.026 24.9893 265.359 25.16 264.634 25.16C263.759 25.16 263.098 24.8667 262.65 24.28C262.202 23.6827 261.978 22.808 261.978 21.656ZM271.699 13.32H273.107V22.84C273.107 23.2987 273.171 23.5813 273.299 23.688C273.427 23.7947 273.582 23.848 273.763 23.848C273.987 23.848 274.201 23.8267 274.403 23.784C274.606 23.7307 274.777 23.6773 274.915 23.624L275.139 24.776C274.905 24.872 274.627 24.952 274.307 25.016C273.987 25.08 273.705 25.112 273.459 25.112C272.915 25.112 272.483 24.9573 272.163 24.648C271.854 24.3387 271.699 23.9067 271.699 23.352V13.32ZM276.277 13.32H277.685V22.84C277.685 23.2987 277.749 23.5813 277.877 23.688C278.005 23.7947 278.16 23.848 278.341 23.848C278.565 23.848 278.779 23.8267 278.981 23.784C279.184 23.7307 279.355 23.6773 279.493 23.624L279.717 24.776C279.483 24.872 279.205 24.952 278.885 25.016C278.565 25.08 278.283 25.112 278.037 25.112C277.493 25.112 277.061 24.9573 276.741 24.648C276.432 24.3387 276.277 23.9067 276.277 23.352V13.32ZM280.911 27.272C281.049 27.2827 281.188 27.2933 281.327 27.304C281.465 27.3253 281.572 27.336 281.647 27.336C281.817 27.336 281.967 27.2773 282.095 27.16C282.223 27.0427 282.361 26.8133 282.511 26.472C282.671 26.1413 282.873 25.6507 283.119 25L279.583 16.648H281.071L283.887 23.576L286.431 16.648H287.823L283.759 27.192C283.663 27.4373 283.519 27.6667 283.327 27.88C283.145 28.104 282.911 28.28 282.623 28.408C282.335 28.536 281.988 28.6 281.583 28.6C281.487 28.6 281.385 28.5947 281.279 28.584C281.183 28.5733 281.06 28.552 280.911 28.52V27.272ZM289.501 21.16V13.528H290.909V21.16H289.501ZM289.501 25V23.016H290.909V25H289.501Z" fill="white" fill-opacity="0.9"/>
<path d="M440.703 14L440 13.2971C439.805 13.1018 439.488 13.1018 439.293 13.2971L434 18.5899L428.707 13.2971C428.512 13.1018 428.195 13.1018 428 13.2971L427.297 14C427.102 14.1952 427.102 14.5118 427.297 14.7071L432.59 19.9999L427.297 25.2929C427.102 25.4881 427.102 25.8047 427.297 26L428 26.7029C428.195 26.8981 428.512 26.8981 428.707 26.7029L434 21.4099L439.293 26.7028C439.488 26.8981 439.805 26.8981 440 26.7028L440.703 25.9999C440.898 25.8047 440.898 25.4881 440.703 25.2928L435.41 19.9999L440.703 14.7071C440.898 14.5118 440.898 14.1952 440.703 14Z" fill="white" fill-opacity="0.65"/>
</svg>
